<?xml version="1.0" standalone="no"?>
<!DOCTYPE svg PUBLIC "-//W3C//DTD SVG 20010904//EN"
 "http://www.w3.org/TR/2001/REC-SVG-20010904/DTD/svg10.dtd">
<svg version="1.0" xmlns="http://www.w3.org/2000/svg"
 width="1024.000000pt" height="1024.000000pt" viewBox="0 0 1024.000000 1024.000000"
 preserveAspectRatio="xMidYMid meet">

<g transform="translate(0.000000,1024.000000) scale(0.100000,-0.100000)"
fill="#ed6511" stroke="none">
<path d="M4844 9021 c-54 -24 -109 -83 -130 -137 -29 -77 -17 -140 59 -294
111 -228 144 -358 134 -536 -10 -174 -62 -291 -186 -414 -83 -82 -168 -133
-286 -170 -91 -29 -320 -39 -474 -19 -166 20 -221 11 -290 -47 -73 -62 -97
-157 -81 -334 30 -355 133 -580 390 -855 177 -189 245 -297 275 -441 30 -142
12 -354 -41 -473 -14 -31 -31 -67 -36 -81 -9 -22 -13 -12 -24 70 -34 254 -158
492 -369 709 -210 216 -337 301 -450 301 -76 0 -130 -25 -177 -79 -50 -59 -62
-110 -55 -239 7 -120 -5 -272 -29 -371 -22 -93 -103 -255 -174 -349 -63 -84
-245 -264 -299 -295 l-30 -18 46 133 c38 111 44 139 40 181 -24 195 -256 269
-394 125 -74 -77 -196 -455 -238 -736 -39 -263 -37 -650 5 -922 71 -459 273
-905 598 -1320 96 -122 360 -384 482 -479 446 -345 1019 -583 1580 -657 189
-25 563 -25 755 -1 441 57 851 197 1235 423 299 176 519 357 754 620 305 342
536 785 641 1231 162 685 80 1356 -244 1978 -85 163 -190 325 -239 365 -77 64
-174 70 -264 17 -73 -43 -94 -84 -133 -257 -53 -233 -195 -503 -368 -701 -165
-189 -291 -238 -374 -144 -42 49 -57 115 -50 229 5 99 15 133 135 467 97 267
115 359 116 574 1 237 -26 359 -128 571 -64 133 -102 193 -197 314 l-72 91 22
74 c70 236 68 544 -5 776 -69 219 -200 442 -353 603 -150 157 -399 329 -621
426 -237 104 -369 131 -456 91z m389 -3678 c61 -43 84 -97 103 -248 45 -363
183 -701 390 -955 116 -143 214 -235 489 -457 139 -113 177 -148 236 -223 61
-78 99 -150 131 -250 33 -107 33 -333 0 -465 -35 -139 -109 -294 -187 -394
-40 -51 -46 -63 -35 -76 35 -42 224 9 446 120 60 30 110 52 112 51 10 -11
-293 -249 -421 -330 -110 -70 -343 -185 -477 -234 -317 -118 -642 -169 -1024
-159 -561 14 -1045 176 -1513 508 -98 69 -265 210 -258 217 2 3 31 -11 64 -31
140 -83 396 -159 499 -148 26 3 10 46 -48 125 -171 235 -231 549 -154 812 49
170 161 314 336 431 327 220 567 439 703 643 140 212 232 483 271 799 8 69 19
142 25 163 11 43 72 107 120 125 55 21 145 10 192 -24z"/>
</g>
</svg>
